<?xml version="1.0" encoding="utf-8"?>
<!-- Generator: Adobe Illustrator 23.0.2, SVG Export Plug-In . SVG Version: 6.00 Build 0)  -->
<svg version="1.1" id="Layer_1" xmlns="http://www.w3.org/2000/svg" xmlns:xlink="http://www.w3.org/1999/xlink" x="0px" y="0px"
	 viewBox="0 0 3012.1 1990.1" style="enable-background:new 0 0 3012.1 1990.1;" xml:space="preserve">
<style type="text/css">
	.st0{fill:#FDF5A6;}
	.st1{fill:#FFFFFF;}
</style>
<g transform="scale(0.6054490413723511) translate(10, 10)">
	<g id="SvgjsG1084">
	</g>
	<g>
		<path d="M2009.9,1435.2c0,13.4,0.1,25.3,0.3,35.9c0.2,10.6,0.5,20.4,0.9,29.4s0.9,17.5,1.5,25.3c0.6,7.9,1.5,15.7,2.7,23.6h-33
			c-2.4-13.3-3.5-28.1-3.5-44.2h-1.2c-10.2,17.7-22.9,30.6-38,38.9c-15.1,8.2-34.3,12.4-57.4,12.4c-11.8,0-23.4-1.5-34.7-4.4
			c-11.4-2.9-21.6-7.7-30.6-14.1c-9-6.5-16.4-14.8-22.1-25s-8.5-22.6-8.5-37.1c0-20.8,5.3-37.3,15.9-49.5s23.6-21.3,39.2-27.4
			c15.5-6.1,32-10,49.5-11.8s32.9-2.6,46.2-2.6h41.2V1368c0-23.6-7.3-40.4-21.8-50.6s-32.8-15.3-54.8-15.3
			c-31.4,0-59.1,10.2-83,30.6l-20.6-24.1c13-12.6,29-22.1,48.3-28.6c19.2-6.5,37.7-9.7,55.4-9.7c33,0,59.3,7.8,78.9,23.3
			s29.4,40.5,29.4,75.1v66.5H2009.9z M1939.2,1412.8c-14.9,0-29.4,1-43.3,2.9c-13.9,2-26.5,5.3-37.7,10s-20.1,11-26.8,18.8
			c-6.7,7.9-10,17.7-10,29.4c0,8.2,1.9,15.6,5.6,22.1s8.5,11.8,14.4,15.9s12.5,7.3,19.7,9.4c7.3,2.2,14.6,3.2,22.1,3.2
			c18.8,0,34.3-2.7,46.5-8.2s21.9-12.7,29.2-21.5c7.3-8.8,12.3-18.8,15-30s4.1-22.5,4.1-33.9v-18.3h-38.8V1412.8z M2365.6,1531.7
			c0,33.8-4.9,61-14.7,81.9c-9.8,20.8-22.1,36.9-36.8,48.3s-30.5,19-47.4,23c-16.9,3.9-32.2,5.9-45.9,5.9s-27.2-1.3-40.3-3.8
			c-13.2-2.6-25.6-6.3-37.4-11.2c-11.8-4.9-22.5-10.9-32.1-18s-18-15.1-25-24.1l27.7-25.9c12.6,17.7,28.3,30.6,47.1,38.9
			s38.9,12.4,60.1,12.4c18.1,0,33.3-2.4,45.6-7.1c12.4-4.7,22.6-10.9,30.6-18.5c8-7.7,14.3-16.1,18.8-25.3c4.5-9.2,7.8-18.5,10-27.7
			s3.4-18,3.8-26.2c0.4-8.2,0.6-14.9,0.6-20v-37.7h-1.2c-10.2,16.5-24.1,29.4-41.5,38.9c-17.5,9.4-38,14.1-61.5,14.1
			c-20,0-38.9-3.6-56.5-10.9c-17.7-7.3-33.1-17.3-46.2-30c-13.2-12.8-23.6-27.6-31.2-44.5c-7.7-16.9-11.5-34.9-11.5-54.2
			c0-19.2,3.8-37.3,11.5-54.2c7.7-16.9,18.1-31.6,31.2-44.2c13.1-12.6,28.6-22.6,46.2-30c17.7-7.5,36.5-11.2,56.5-11.2
			c23.6,0,44.1,4.7,61.5,14.1c17.5,9.4,31.3,22.4,41.5,38.9h1.2v-45.9h35.3L2365.6,1531.7L2365.6,1531.7z M2331.4,1409.8
			c0-14.9-2.9-28.9-8.5-42.1c-5.7-13.1-13.4-24.5-23-34.2c-9.6-9.6-21-17.3-34.2-23s-27.2-8.5-42.1-8.5c-14.9,0-29,2.9-42.1,8.5
			c-13.2,5.7-24.5,13.4-34.2,23c-9.6,9.6-17.3,21-23,34.2s-8.5,27.2-8.5,42.1s2.8,29,8.5,42.1c5.7,13.2,13.3,24.5,23,34.2
			c9.6,9.6,21,17.3,34.2,23c13.1,5.7,27.2,8.5,42.1,8.5c14.9,0,28.9-2.8,42.1-8.5c13.1-5.7,24.5-13.3,34.2-23
			c9.6-9.6,17.3-21,23-34.2C2328.6,1438.8,2331.4,1424.8,2331.4,1409.8z M2713.6,1531.7c0,33.8-4.9,61-14.7,81.9
			c-9.8,20.8-22.1,36.9-36.8,48.3s-30.5,19-47.4,23c-16.9,3.9-32.2,5.9-45.9,5.9s-27.2-1.3-40.3-3.8c-13.2-2.6-25.6-6.3-37.4-11.2
			c-11.8-4.9-22.5-10.9-32.1-18s-18-15.1-25-24.1l27.7-25.9c12.6,17.7,28.3,30.6,47.1,38.9s38.9,12.4,60.1,12.4
			c18.1,0,33.3-2.4,45.6-7.1c12.4-4.7,22.6-10.9,30.6-18.5c8-7.7,14.3-16.1,18.8-25.3c4.5-9.2,7.8-18.5,10-27.7s3.4-18,3.8-26.2
			c0.4-8.2,0.6-14.9,0.6-20v-37.7h-1.2c-10.2,16.5-24.1,29.4-41.5,38.9c-17.5,9.4-38,14.1-61.5,14.1c-20,0-38.9-3.6-56.5-10.9
			c-17.7-7.3-33.1-17.3-46.2-30c-13.2-12.8-23.6-27.6-31.2-44.5c-7.7-16.9-11.5-34.9-11.5-54.2c0-19.2,3.8-37.3,11.5-54.2
			c7.7-16.9,18.1-31.6,31.2-44.2c13.1-12.6,28.6-22.6,46.2-30c17.7-7.5,36.5-11.2,56.5-11.2c23.6,0,44.1,4.7,61.5,14.1
			c17.5,9.4,31.3,22.4,41.5,38.9h1.2v-45.9h35.3L2713.6,1531.7L2713.6,1531.7z M2679.5,1409.8c0-14.9-2.9-28.9-8.5-42.1
			c-5.7-13.1-13.4-24.5-23-34.2c-9.6-9.6-21-17.3-34.2-23s-27.2-8.5-42.1-8.5c-14.9,0-29,2.9-42.1,8.5c-13.2,5.7-24.5,13.4-34.2,23
			c-9.6,9.6-17.3,21-23,34.2s-8.5,27.2-8.5,42.1s2.8,29,8.5,42.1c5.7,13.2,13.3,24.5,23,34.2c9.6,9.6,21,17.3,34.2,23
			c13.1,5.7,27.2,8.5,42.1,8.5c14.9,0,28.9-2.8,42.1-8.5c13.1-5.7,24.5-13.3,34.2-23c9.6-9.6,17.3-21,23-34.2
			C2676.6,1438.8,2679.5,1424.8,2679.5,1409.8z M2788.4,1353.9c0-5.1-0.2-11.3-0.6-18.6c-0.4-7.3-0.7-14.6-0.9-22.1
			s-0.5-14.4-0.9-20.9s-0.6-11.5-0.6-15h35.3c0.4,10.2,0.7,20,0.9,29.4s0.7,15.5,1.5,18.3c9-16.1,20.6-29.2,34.7-39.5
			c14.1-10.2,31.4-15.3,51.8-15.3c3.5,0,7,0.3,10.3,0.9s6.8,1.3,10.3,2.1l-4.1,34.7c-4.7-1.6-9.2-2.4-13.5-2.4
			c-15.3,0-28.6,2.5-39.8,7.4s-20.4,11.7-27.7,20.3c-7.3,8.6-12.7,18.8-16.2,30.3c-3.5,11.6-5.3,24.1-5.3,37.4v148.4h-35.3v-195.4
			H2788.4z M3202.4,1498.2c-13.7,20.8-30.7,35.7-50.9,44.8c-20.2,9-42.5,13.5-66.8,13.5c-20.8,0-39.7-3.5-56.5-10.6
			c-16.9-7.1-31.4-17-43.6-29.7c-12.2-12.8-21.5-27.9-28-45.3c-6.5-17.5-9.7-36.8-9.7-58c0-20.4,3.3-39.3,10-56.5
			c6.7-17.3,16.1-32.3,28.3-45.1c12.2-12.8,26.5-22.8,43-30c16.5-7.3,34.7-10.9,54.8-10.9c20.8,0,39.2,3.6,55.1,10.9
			c15.9,7.3,29.2,16.9,40,28.9s18.9,25.6,24.4,40.9s8.2,30.8,8.2,46.5v24.7h-228.5c0,7.5,1.5,17,4.4,28.6s8.3,22.9,16.2,33.9
			c7.8,11,18.3,20.4,31.5,28.3c13.1,7.9,30.1,11.8,50.9,11.8c18.1,0,35.5-4.3,52.4-13c16.9-8.6,29.8-20.4,38.9-35.3L3202.4,1498.2z
			 M3175.3,1390.4c0-12.2-2.5-23.6-7.4-34.2s-11.6-19.9-20-28c-8.4-8-18.5-14.4-30-19.1c-11.6-4.7-23.8-7.1-36.8-7.1
			c-19.2,0-35.2,3.9-48,11.8s-22.9,16.9-30.3,27.1c-7.5,10.2-12.8,20.1-15.9,29.7c-3.1,9.6-4.7,16.2-4.7,19.7L3175.3,1390.4
			L3175.3,1390.4z M3551,1531.7c0,33.8-4.9,61-14.7,81.9c-9.8,20.8-22.1,36.9-36.8,48.3s-30.5,19-47.4,23
			c-16.9,3.9-32.2,5.9-45.9,5.9s-27.2-1.3-40.3-3.8c-13.2-2.6-25.6-6.3-37.4-11.2c-11.8-4.9-22.5-10.9-32.1-18s-18-15.1-25-24.1
			l27.7-25.9c12.6,17.7,28.3,30.6,47.1,38.9s38.9,12.4,60.1,12.4c18.1,0,33.3-2.4,45.6-7.1c12.4-4.7,22.6-10.9,30.6-18.5
			c8-7.7,14.3-16.1,18.8-25.3c4.5-9.2,7.8-18.5,10-27.7s3.4-18,3.8-26.2c0.4-8.2,0.6-14.9,0.6-20v-37.7h-1.2
			c-10.2,16.5-24.1,29.4-41.5,38.9c-17.5,9.4-38,14.1-61.5,14.1c-20,0-38.9-3.6-56.5-10.9c-17.7-7.3-33.1-17.3-46.2-30
			c-13.2-12.8-23.6-27.6-31.2-44.5c-7.7-16.9-11.5-34.9-11.5-54.2c0-19.2,3.8-37.3,11.5-54.2c7.7-16.9,18.1-31.6,31.2-44.2
			c13.1-12.6,28.6-22.6,46.2-30c17.7-7.5,36.5-11.2,56.5-11.2c23.6,0,44.1,4.7,61.5,14.1c17.5,9.4,31.3,22.4,41.5,38.9h1.2v-45.9
			h35.3L3551,1531.7L3551,1531.7z M3516.9,1409.8c0-14.9-2.9-28.9-8.5-42.1c-5.7-13.1-13.4-24.5-23-34.2c-9.6-9.6-21-17.3-34.2-23
			s-27.2-8.5-42.1-8.5c-14.9,0-29,2.9-42.1,8.5c-13.2,5.7-24.5,13.4-34.2,23c-9.6,9.6-17.3,21-23,34.2s-8.5,27.2-8.5,42.1
			s2.8,29,8.5,42.1c5.7,13.2,13.3,24.5,23,34.2c9.6,9.6,21,17.3,34.2,23c13.1,5.7,27.2,8.5,42.1,8.5c14.9,0,28.9-2.8,42.1-8.5
			c13.1-5.7,24.5-13.3,34.2-23c9.6-9.6,17.3-21,23-34.2C3514,1438.8,3516.9,1424.8,3516.9,1409.8z M3837.2,1435.2
			c0,13.4,0.1,25.3,0.3,35.9s0.5,20.4,0.9,29.4s0.9,17.5,1.5,25.3c0.6,7.9,1.5,15.7,2.7,23.6h-33c-2.4-13.3-3.5-28.1-3.5-44.2h-1.2
			c-10.2,17.7-22.9,30.6-38,38.9c-15.1,8.2-34.3,12.4-57.4,12.4c-11.8,0-23.4-1.5-34.7-4.4c-11.4-2.9-21.6-7.7-30.6-14.1
			c-9-6.5-16.4-14.8-22.1-25c-5.7-10.2-8.5-22.6-8.5-37.1c0-20.8,5.3-37.3,15.9-49.5c10.6-12.2,23.6-21.3,39.2-27.4
			c15.5-6.1,32-10,49.5-11.8s32.9-2.6,46.2-2.6h41.2V1368c0-23.6-7.3-40.4-21.8-50.6s-32.8-15.3-54.8-15.3
			c-31.4,0-59.1,10.2-83,30.6l-20.6-24.1c13-12.6,29-22.1,48.3-28.6c19.2-6.5,37.7-9.7,55.4-9.7c33,0,59.3,7.8,78.9,23.3
			c19.6,15.5,29.4,40.5,29.4,75.1v66.5H3837.2z M3766.6,1412.8c-14.9,0-29.4,1-43.3,2.9c-13.9,2-26.5,5.3-37.7,10
			s-20.1,11-26.8,18.8c-6.7,7.9-10,17.7-10,29.4c0,8.2,1.9,15.6,5.6,22.1c3.7,6.5,8.5,11.8,14.4,15.9s12.5,7.3,19.7,9.4
			c7.3,2.2,14.6,3.2,22.1,3.2c18.8,0,34.3-2.7,46.5-8.2s21.9-12.7,29.1-21.5c7.3-8.8,12.3-18.8,15-30s4.1-22.5,4.1-33.9v-18.3h-38.7
			V1412.8z M4052.8,1309.1H3975v177.3c0,12.2,3.3,21.6,10,28.3c6.7,6.7,15.9,10,27.7,10c6.7,0,13.4-0.9,20.3-2.7
			c6.9-1.8,13.4-4,19.7-6.8l2.9,31.8c-6.7,2.4-14.3,4.5-23,6.5c-8.6,2-16.3,2.9-23,2.9c-12.6,0-23.4-1.9-32.4-5.6s-16.3-8.7-21.8-15
			s-9.5-13.6-12.1-22.1c-2.6-8.4-3.8-17.6-3.8-27.4V1309h-58.9v-31.8h58.9V1199h35.3v78.3h77.7v31.8H4052.8z M4344.3,1498.2
			c-13.7,20.8-30.7,35.7-50.9,44.8c-20.2,9-42.5,13.5-66.8,13.5c-20.8,0-39.7-3.5-56.5-10.6c-16.9-7.1-31.4-17-43.6-29.7
			c-12.2-12.8-21.5-27.9-28-45.3c-6.5-17.5-9.7-36.8-9.7-58c0-20.4,3.3-39.3,10-56.5c6.7-17.3,16.1-32.3,28.3-45.1
			c12.2-12.8,26.5-22.8,43-30c16.5-7.3,34.7-10.9,54.8-10.9c20.8,0,39.2,3.6,55.1,10.9s29.2,16.9,40,28.9s18.9,25.6,24.4,40.9
			s8.2,30.8,8.2,46.5v24.7H4124c0,7.5,1.5,17,4.4,28.6s8.3,22.9,16.2,33.9c7.8,11,18.3,20.4,31.5,28.3c13.1,7.9,30.1,11.8,50.9,11.8
			c18.1,0,35.5-4.3,52.4-13c16.9-8.6,29.8-20.4,38.9-35.3L4344.3,1498.2z M4317.2,1390.4c0-12.2-2.5-23.6-7.4-34.2s-11.6-19.9-20-28
			c-8.4-8-18.5-14.4-30-19.1c-11.6-4.7-23.9-7.1-36.8-7.1c-19.2,0-35.2,3.9-48,11.8s-22.9,16.9-30.3,27.1
			c-7.5,10.2-12.8,20.1-15.9,29.7s-4.7,16.2-4.7,19.7L4317.2,1390.4L4317.2,1390.4z M1806.2,1709.8c0-14.1,5-26.2,15-36.2
			s22.1-15,36.2-15s26.2,5,36.2,15s15,22.1,15,36.2s-5,26.2-15,36.2s-22.1,15-36.2,15s-26.2-5-36.2-15S1806.2,1724,1806.2,1709.8z
			 M1813.2,1799.9h88.3v286.2h-88.3V1799.9z M1953.4,1799.9h84.8v38.9h1.2c2.7-5.5,6.7-11,11.8-16.5c5.1-5.5,11.2-10.4,18.3-14.7
			c7.1-4.3,15.1-7.8,24.1-10.6c9-2.7,18.8-4.1,29.4-4.1c22.4,0,40.4,3.4,54.2,10.3c13.7,6.9,24.4,16.4,32.1,28.6
			c7.7,12.2,12.9,26.5,15.6,43c2.7,16.5,4.1,34.4,4.1,53.6v157.8h-88.3V1946c0-8.2-0.3-16.8-0.9-25.6c-0.6-8.8-2.4-17-5.3-24.4
			c-2.9-7.5-7.5-13.5-13.5-18.3c-6.1-4.7-14.8-7.1-26.2-7.1s-20.6,2.1-27.7,6.2c-7.1,4.1-12.5,9.6-16.2,16.5
			c-3.7,6.9-6.2,14.6-7.4,23.3c-1.2,8.6-1.8,17.7-1.8,27.1v142.5h-88.3L1953.4,1799.9L1953.4,1799.9z M2474.5,1870.6h-77.7v95.4
			c0,7.9,0.4,15,1.2,21.5s2.5,12.1,5.3,16.8c2.7,4.7,7,8.3,12.7,10.9s13.2,3.8,22.7,3.8c4.7,0,10.9-0.5,18.5-1.5
			c7.7-1,13.4-3.2,17.4-6.8v73.6c-9.8,3.5-20,5.9-30.6,7.1c-10.6,1.2-21,1.8-31.2,1.8c-14.9,0-28.7-1.6-41.2-4.7
			c-12.6-3.1-23.6-8.1-33-15s-16.8-15.8-22.1-26.8c-5.3-11-8-24.3-8-40v-136H2252V1800h56.5v-84.8h88.3v84.8h77.7L2474.5,1870.6
			L2474.5,1870.6z M2778.4,2036.7c-14.1,18.1-32,32-53.6,41.8s-44,14.7-67.1,14.7c-22,0-42.7-3.5-62.1-10.6
			c-19.4-7.1-36.3-17.2-50.6-30.3c-14.3-13.1-25.6-28.9-33.9-47.4c-8.2-18.4-12.4-39.1-12.4-61.8c0-22.8,4.1-43.4,12.4-61.8
			c8.2-18.4,19.5-34.2,33.9-47.4c14.3-13.1,31.2-23.3,50.6-30.3c19.4-7.1,40.1-10.6,62.1-10.6c20.4,0,39,3.5,55.6,10.6
			c16.7,7.1,30.8,17.2,42.4,30.3c11.6,13.2,20.5,29,26.8,47.4c6.3,18.5,9.4,39.1,9.4,61.8v27.7H2587c3.5,16.9,11.2,30.3,23,40.3
			s26.3,15,43.6,15c14.5,0,26.8-3.2,36.8-9.7s18.7-14.8,26.2-25L2778.4,2036.7z M2703.6,1910.6c0.4-14.9-4.5-27.7-14.7-38.3
			c-10.2-10.6-23.4-15.9-39.5-15.9c-9.8,0-18.5,1.6-25.9,4.7c-7.5,3.1-13.8,7.2-19.1,12.1s-9.4,10.6-12.4,17.1
			c-2.9,6.5-4.6,13.2-5,20.3L2703.6,1910.6L2703.6,1910.6z M2834.9,1640.9h88.3v445.2h-88.3V1640.9z M2976.3,1640.9h88.3v445.2
			h-88.3V1640.9z M3387.3,2036.7c-14.1,18.1-32,32-53.6,41.8s-44,14.7-67.1,14.7c-22,0-42.7-3.5-62.1-10.6
			c-19.4-7.1-36.3-17.2-50.6-30.3c-14.3-13.1-25.6-28.9-33.9-47.4c-8.2-18.4-12.4-39.1-12.4-61.8c0-22.8,4.1-43.4,12.4-61.8
			c8.2-18.4,19.5-34.2,33.9-47.4c14.3-13.1,31.2-23.3,50.6-30.3c19.4-7.1,40.1-10.6,62.1-10.6c20.4,0,39,3.5,55.7,10.6
			s30.8,17.2,42.4,30.3c11.6,13.2,20.5,29,26.8,47.4c6.3,18.5,9.4,39.1,9.4,61.8v27.7H3196c3.5,16.9,11.2,30.3,23,40.3
			s26.3,15,43.6,15c14.5,0,26.8-3.2,36.8-9.7s18.7-14.8,26.2-25L3387.3,2036.7z M3312.5,1910.6c0.4-14.9-4.5-27.7-14.7-38.3
			c-10.2-10.6-23.4-15.9-39.5-15.9c-9.8,0-18.5,1.6-25.9,4.7c-7.5,3.1-13.8,7.2-19.1,12.1s-9.4,10.6-12.4,17.1
			c-2.9,6.5-4.6,13.2-5,20.3L3312.5,1910.6L3312.5,1910.6z M3636.4,1892.4c-4.3-6.3-10.4-11.5-18.3-15.6c-7.9-4.1-16.3-6.2-25.3-6.2
			c-22.4,0-39.8,6.7-52.1,20c-12.4,13.4-18.5,30.8-18.5,52.4s6.2,39.1,18.5,52.4c12.4,13.4,29.7,20,52.1,20c9.8,0,18.3-2.2,25.3-6.5
			c7.1-4.3,13.1-9.4,18.3-15.3l58.3,61.2c-13.7,14.1-29.9,24.1-48.6,29.7c-18.7,5.7-36.4,8.5-53.3,8.5c-22,0-42.7-3.5-62.1-10.6
			c-19.4-7.1-36.3-17.2-50.6-30.3c-14.3-13.1-25.6-28.9-33.9-47.4c-8.2-18.4-12.4-39.1-12.4-61.8c0-22.8,4.1-43.4,12.4-61.8
			c8.2-18.4,19.5-34.2,33.9-47.4c14.3-13.1,31.2-23.3,50.6-30.3c19.4-7.1,40.1-10.6,62.1-10.6c16.9,0,34.6,2.9,53.3,8.5
			c18.6,5.7,34.8,15.6,48.6,29.7L3636.4,1892.4z M3909.6,1870.6h-77.7v95.4c0,7.9,0.4,15,1.2,21.5s2.5,12.1,5.3,16.8
			c2.7,4.7,7,8.3,12.7,10.9s13.2,3.8,22.7,3.8c4.7,0,10.9-0.5,18.5-1.5c7.7-1,13.4-3.2,17.4-6.8v73.6c-9.8,3.5-20,5.9-30.6,7.1
			c-10.6,1.2-21,1.8-31.2,1.8c-14.9,0-28.7-1.6-41.2-4.7c-12.6-3.1-23.6-8.1-33-15s-16.8-15.8-22.1-26.8c-5.3-11-8-24.3-8-40v-136
			H3687V1800h56.5v-84.8h88.3v84.8h77.7v70.6H3909.6z"/>
	</g>
	<g>
		<path d="M818.3,1525.1c-89.5,51.1-166.1-83.2-76.6-134.3c77.6-44.3,144.3,49.5,106.5,108l76.6,55.4c-2.9,6.7-5.6,13.6-8,20.6
			l-83.1-59.8C828.7,1517.8,824.3,1521.7,818.3,1525.1z"/>
		<path d="M1432.3,1724.7c45-92.7,184.1-25.1,139.1,67.6c-39,80.3-147.1,40.6-148.9-29l-94.5-2.4c-1.4-7.2-3-14.4-5-21.5l102.3,2.4
			C1427.8,1736.5,1429.3,1730.9,1432.3,1724.7z"/>
		<path d="M947.6,1839.7L856,1933c27.5,45.5,5.2,120.4-66.6,120.5c-103.4-1.1-103-156.7,0.4-155.6c23.6,0.2,40.8,7,53.3,19
			l89.5-91.4c1,1,1.9,2,2.9,3C939.5,1832.4,943.5,1836.1,947.6,1839.7z"/>
		<path d="M978.5,1350.1c-9,7.1-16.8,12-25.4,15.9l24.4,69.2c-6.1,2.6-12,5.5-17.8,8.6l-25.9-72.6
			c-86.6,16.3-161.9-103.8-75.9-172.4C959.1,1118.1,1079.7,1269.5,978.5,1350.1z"/>
		<path d="M1224.5,2136.3c-67.2,53.5-147.8-47.6-80.7-101.2c5.4-4.3,11.5-7.7,16.7-10.3L1134,1878c6.8-1.4,13.5-3.1,20.1-5.1
			l25.7,146.8C1234.7,2016.8,1278.4,2091.8,1224.5,2136.3z"/>
		<path d="M1292.4,1242.9c75.9-40.2,136.5,74.1,60.6,114.3c-6.1,3.2-12.7,5.4-18.3,7.1l-1,149.2c-6.9,0.1-13.8,0.6-20.7,1.3l1.8-149
			C1260.3,1358.4,1231.2,1276.6,1292.4,1242.9z"/>
		<polygon class="st0" points="1254,1424.1 1254,1447.5 1272.6,1424.1 		"/>
		<path class="st1" d="M1388,1299.4c0,35.9-29.1,65-65,65s-65-29.1-65-65s29.1-65,65-65S1388,1263.5,1388,1299.4z"/>
		<path d="M1388,1299.4h-7.5c0,8-1.6,15.5-4.5,22.4c-4.4,10.3-11.7,19.1-20.8,25.3c-9.2,6.2-20.2,9.8-32.2,9.8
			c-8,0-15.5-1.6-22.4-4.5c-10.3-4.4-19.1-11.7-25.3-20.8c-6.2-9.2-9.8-20.2-9.8-32.2c0-8,1.6-15.5,4.5-22.4
			c4.4-10.3,11.7-19.1,20.8-25.3c9.2-6.2,20.2-9.8,32.2-9.8c8,0,15.5,1.6,22.4,4.5c10.3,4.4,19.1,11.7,25.3,20.8
			c6.2,9.2,9.8,20.2,9.8,32.2H1388h7.5c0-10-2-19.5-5.7-28.2c-5.5-13-14.7-24.1-26.3-31.9c-11.6-7.8-25.6-12.4-40.6-12.4
			c-10,0-19.5,2-28.2,5.7c-13,5.5-24.1,14.7-31.9,26.3c-7.8,11.6-12.4,25.6-12.4,40.6c0,10,2,19.5,5.7,28.2
			c5.5,13,14.7,24.1,26.3,31.9c11.6,7.8,25.6,12.4,40.6,12.4c10,0,19.5-2,28.2-5.7c13-5.5,24.1-14.7,31.9-26.3
			c7.8-11.6,12.4-25.6,12.4-40.6H1388z"/>
		<path class="st1" d="M1248.8,2086.1c0,35.9-29.1,65-65,65s-65-29.1-65-65s29.1-65,65-65S1248.8,2050.2,1248.8,2086.1z"/>
		<path d="M1248.8,2086.1h-7.5c0,8-1.6,15.5-4.5,22.4c-4.4,10.3-11.7,19.1-20.8,25.3c-9.2,6.2-20.2,9.8-32.2,9.8
			c-8,0-15.5-1.6-22.4-4.5c-10.3-4.4-19.1-11.7-25.3-20.8c-6.2-9.2-9.8-20.2-9.8-32.2c0-8,1.6-15.5,4.5-22.4
			c4.4-10.3,11.7-19.1,20.8-25.3c9.2-6.2,20.2-9.8,32.2-9.8c8,0,15.5,1.6,22.4,4.5c10.3,4.4,19.1,11.7,25.3,20.8
			c6.2,9.2,9.8,20.2,9.8,32.2H1248.8h7.5c0-10-2-19.6-5.7-28.2c-5.5-13-14.7-24.1-26.3-31.9c-11.6-7.8-25.6-12.4-40.6-12.4
			c-10,0-19.5,2-28.2,5.7c-13,5.5-24.1,14.7-31.9,26.3c-7.8,11.6-12.4,25.6-12.4,40.6c0,10,2,19.5,5.7,28.2
			c5.5,13,14.7,24.1,26.3,31.9c11.6,7.8,25.6,12.4,40.6,12.4c10,0,19.5-2,28.2-5.7c13-5.5,24.1-14.7,31.9-26.3s12.4-25.6,12.4-40.6
			L1248.8,2086.1L1248.8,2086.1z"/>
		<circle class="st1" cx="792.4" cy="1973.2" r="80.3"/>
		<path d="M872.7,1973.2h-7.5c0,10.1-2,19.6-5.7,28.3c-5.5,13.1-14.8,24.2-26.4,32c-11.6,7.9-25.6,12.4-40.7,12.4
			c-10.1,0-19.6-2-28.3-5.7c-13.1-5.5-24.2-14.8-32-26.4c-7.9-11.6-12.4-25.6-12.4-40.7c0-10.1,2-19.6,5.7-28.3
			c5.5-13.1,14.8-24.2,26.4-32c11.6-7.9,25.6-12.4,40.7-12.4c10.1,0,19.6,2,28.3,5.7c13.1,5.5,24.2,14.8,32,26.4
			c7.9,11.6,12.4,25.6,12.4,40.7H872.7h7.5c0-12.1-2.5-23.7-6.9-34.2c-6.7-15.8-17.8-29.2-31.8-38.6c-14-9.5-30.9-15-49.1-15
			c-12.1,0-23.7,2.5-34.2,6.9c-15.8,6.7-29.2,17.8-38.6,31.8c-9.5,14-15,30.9-15,49.1c0,12.1,2.5,23.7,6.9,34.2
			c6.7,15.8,17.8,29.2,31.8,38.6c14,9.5,30.9,15,49.1,15c12.1,0,23.7-2.5,34.2-6.9c15.8-6.7,29.2-17.8,38.6-31.8
			c9.5-14,15-30.9,15-49.1L872.7,1973.2L872.7,1973.2z"/>
		<ellipse class="st1" cx="779.8" cy="1457.3" rx="78" ry="78"/>
		<path d="M857.8,1457.3h-7.5c0,9.8-2,19-5.5,27.5c-5.3,12.6-14.3,23.4-25.6,31s-24.8,12-39.4,12c-9.8,0-19-2-27.5-5.5
			c-12.6-5.3-23.4-14.3-31-25.6c-7.6-11.3-12-24.8-12-39.4c0-9.8,2-19,5.5-27.5c5.3-12.6,14.3-23.4,25.6-31s24.8-12,39.4-12
			c9.8,0,19,2,27.5,5.5c12.6,5.3,23.4,14.3,31,25.6c7.6,11.3,12,24.8,12,39.4H857.8h7.5c0-11.8-2.4-23.1-6.7-33.3
			c-6.5-15.4-17.3-28.4-31-37.6c-13.6-9.2-30.1-14.6-47.8-14.6c-11.8,0-23.1,2.4-33.3,6.7c-15.4,6.5-28.4,17.3-37.6,31
			c-9.2,13.6-14.6,30.1-14.6,47.8c0,11.8,2.4,23.1,6.7,33.3c6.5,15.4,17.3,28.4,31,37.6c13.6,9.2,30.1,14.6,47.8,14.6
			c11.8,0,23.1-2.4,33.3-6.7c15.4-6.5,28.4-17.3,37.6-31c9.2-13.6,14.6-30.1,14.6-47.8H857.8z"/>
		<ellipse class="st1" cx="1502.3" cy="1758.6" rx="78" ry="78"/>
		<path d="M1580.2,1758.6h-7.5c0,9.8-2,19-5.5,27.5c-5.3,12.6-14.3,23.4-25.6,31c-11.3,7.6-24.8,12-39.4,12c-9.8,0-19-2-27.5-5.5
			c-12.6-5.3-23.4-14.3-31-25.6c-7.6-11.3-12-24.8-12-39.4c0-9.8,2-19,5.5-27.5c5.3-12.6,14.3-23.4,25.6-31
			c11.3-7.6,24.8-12,39.4-12c9.8,0,19,2,27.5,5.5c12.6,5.3,23.4,14.3,31,25.6c7.6,11.3,12,24.8,12,39.4H1580.2h7.5
			c0-11.8-2.4-23.1-6.7-33.3c-6.5-15.4-17.3-28.4-31-37.6c-13.6-9.2-30.1-14.6-47.8-14.6c-11.8,0-23.1,2.4-33.3,6.7
			c-15.4,6.5-28.4,17.3-37.6,31c-9.2,13.6-14.6,30.1-14.6,47.8c0,11.8,2.4,23.1,6.7,33.3c6.5,15.4,17.3,28.4,31,37.6
			c13.6,9.2,30.1,14.6,47.8,14.6c11.8,0,23.1-2.4,33.3-6.7c15.4-6.5,28.4-17.3,37.6-31c9.2-13.6,14.6-30.1,14.6-47.8H1580.2z"/>
		<path d="M1254,1424.1v58.2c-47.2-39.5-106.6-69.2-169.2-69.2c-70.3,0-136.2,26.4-186.8,75.8c-49.4,50.5-76.9,116.5-76.9,186.8
			s27.5,136.2,76.9,186.8c50.5,49.4,116.5,75.8,186.8,75.8c62.6,0,122-29.7,169.2-69.2v58.2h94.5v-503.2L1254,1424.1L1254,1424.1z
			 M1084.8,1846c-93.4,0-169.2-76.9-169.2-170.3c0-93.4,75.8-170.3,169.2-170.3s169.2,76.9,169.2,170.3
			C1254,1769.1,1178.2,1846,1084.8,1846z"/>
		<ellipse class="st1" cx="918.3" cy="1274.6" rx="100.1" ry="100.1"/>
		<path d="M1018.4,1274.5h-7.5c0,12.8-2.6,25-7.3,36c-7,16.6-18.8,30.7-33.5,40.7c-14.8,10-32.5,15.8-51.7,15.8
			c-12.8,0-25-2.6-36-7.3c-16.6-7-30.7-18.8-40.7-33.5c-10-14.8-15.8-32.5-15.8-51.7c0-12.8,2.6-25,7.3-36
			c7-16.6,18.8-30.7,33.5-40.7c14.8-10,32.5-15.8,51.7-15.8c12.8,0,25,2.6,36,7.3c16.6,7,30.7,18.8,40.7,33.5
			c10,14.8,15.8,32.5,15.8,51.7H1018.4h7.5c0-14.8-3-29-8.5-41.9c-8.2-19.3-21.8-35.7-39-47.3c-17.2-11.6-37.9-18.4-60.1-18.4
			c-14.8,0-29,3-41.9,8.5c-19.3,8.2-35.7,21.8-47.3,39s-18.4,37.9-18.4,60.1c0,14.8,3,29,8.5,41.9c8.2,19.3,21.8,35.7,39,47.3
			c17.2,11.6,37.9,18.4,60.1,18.4c14.8,0,29-3,41.9-8.5c19.3-8.2,35.7-21.8,47.3-39s18.4-37.9,18.4-60.1H1018.4z"/>
		<rect x="1281.4" y="1424.1" width="94.5" height="503.2"/>
	</g>
</g>
</svg>
